<svg width="13" height="23" viewBox="0 0 13 23" fill="none" xmlns="http://www.w3.org/2000/svg">
<path d="M12.3092 0.15612L9.3469 0.151367C6.01883 0.151367 3.8681 2.35795 3.8681 5.77323V8.36528H0.889624C0.632248 8.36528 0.423828 8.57394 0.423828 8.83132V12.5869C0.423828 12.8443 0.632485 13.0527 0.889622 13.0527H3.8681V22.5293C3.8681 22.7866 4.07652 22.9951 4.33389 22.9951H8.21995C8.47733 22.9951 8.68575 22.7864 8.68575 22.5293V13.0527H12.1683C12.4257 13.0527 12.6341 12.8443 12.6341 12.5869L12.6355 8.83132C12.6355 8.70774 12.5863 8.58939 12.4991 8.50193C12.4119 8.41448 12.293 8.36528 12.1695 8.36528H8.68575V6.16797C8.68575 5.11185 8.93742 4.57571 10.3132 4.57571L12.3087 4.57499C12.5659 4.57499 12.7743 4.36634 12.7743 4.1092V0.621915C12.7743 0.365015 12.5661 0.156596 12.3092 0.15612Z" fill="white"/>
</svg>
