<svg width="254" height="93" viewBox="0 0 254 93" fill="none" xmlns="http://www.w3.org/2000/svg">
<rect x="1.58177" y="1.41233" width="250.955" height="90.1479" rx="6.59821" fill="white"/>
<path d="M53.8742 52.0275C52.8821 50.6043 52.3863 49.0009 52.3863 47.2186C52.3863 45.594 52.8542 44.1057 53.7879 42.7544C54.2911 42.0212 55.1108 41.1732 56.2466 40.2098C55.4991 39.2899 54.7516 38.5711 54.0035 38.0534C52.6521 37.119 51.1208 36.6519 49.4102 36.6519C48.3896 36.6519 47.1457 36.8961 45.6796 37.3853C44.2706 37.8741 43.2425 38.1187 42.5959 38.1187C42.1068 38.1187 41.115 37.9032 39.6198 37.4717C38.1103 37.0403 36.8378 36.8248 35.8027 36.8248C33.3299 36.8248 31.2884 37.8601 29.6782 39.9302C28.0536 42.0292 27.2412 44.7176 27.2412 47.9956C27.2412 51.4749 28.2982 55.0903 30.4114 58.8428C32.5534 62.5664 34.7172 64.4284 36.9025 64.4284C37.6357 64.4284 38.5846 64.1839 39.749 63.6951C40.9137 63.2211 41.9344 62.9835 42.8115 62.9835C43.7457 62.9835 44.8313 63.2135 46.0676 63.6734C47.3758 64.133 48.3824 64.3631 49.0868 64.3631C50.9269 64.3631 52.7746 62.9541 54.629 60.1363C55.8364 58.3393 56.7207 56.5423 57.2814 54.745C56.0018 54.3565 54.8662 53.4508 53.8742 52.0275Z" fill="black"/>
<path d="M46.5406 35.3585C47.4466 34.4528 48.1151 33.4607 48.5465 32.3826C48.9632 31.3043 49.1713 30.3265 49.1713 29.4494C49.1713 29.3921 49.1682 29.3201 49.1604 29.2338C49.1539 29.1475 49.15 29.0759 49.15 29.0183C49.1355 28.9751 49.1177 28.896 49.0962 28.7811C49.0748 28.6662 49.0569 28.5872 49.0422 28.5439C46.5119 29.1337 44.7148 30.1975 43.6509 31.7359C42.5729 33.2887 42.012 35.1359 41.9688 37.278C42.932 37.1917 43.6793 37.0697 44.2115 36.9115C44.9884 36.6526 45.7639 36.1348 46.5406 35.3585Z" fill="black"/>
<path d="M74.7515 55.4863L82.6535 37.9264H85.8644L93.7915 55.4863H90.3798L83.5816 39.6573H84.8861L78.113 55.4863H74.7515ZM78.3889 51.4225L79.2669 48.8637H88.7493L89.6273 51.4225H78.3889ZM103.149 55.6619C102.062 55.6619 101.067 55.4111 100.164 54.9094C99.2774 54.4076 98.5667 53.6551 98.0315 52.6517C97.5131 51.6315 97.2539 50.3438 97.2539 48.7885C97.2539 47.2165 97.5047 45.9287 98.0064 44.9253C98.5249 43.9219 99.2273 43.1777 100.114 42.6927C101 42.191 102.012 41.9401 103.149 41.9401C104.47 41.9401 105.632 42.2244 106.636 42.793C107.656 43.3616 108.459 44.156 109.044 45.1762C109.646 46.1963 109.947 47.4004 109.947 48.7885C109.947 50.1765 109.646 51.389 109.044 52.4259C108.459 53.446 107.656 54.2404 106.636 54.809C105.632 55.3776 104.47 55.6619 103.149 55.6619ZM95.7236 60.3529V42.0906H98.7088V45.2514L98.6085 48.8136L98.8593 52.3757V60.3529H95.7236ZM102.798 52.9778C103.55 52.9778 104.219 52.8105 104.805 52.4761C105.407 52.1416 105.883 51.6566 106.234 51.0211C106.586 50.3856 106.761 49.6414 106.761 48.7885C106.761 47.9188 106.586 47.1746 106.234 46.5559C105.883 45.9204 105.407 45.4354 104.805 45.1009C104.219 44.7664 103.55 44.5992 102.798 44.5992C102.045 44.5992 101.368 44.7664 100.766 45.1009C100.164 45.4354 99.6872 45.9204 99.336 46.5559C98.9848 47.1746 98.8092 47.9188 98.8092 48.7885C98.8092 49.6414 98.9848 50.3856 99.336 51.0211C99.6872 51.6566 100.164 52.1416 100.766 52.4761C101.368 52.8105 102.045 52.9778 102.798 52.9778ZM120.346 55.6619C119.259 55.6619 118.264 55.4111 117.361 54.9094C116.475 54.4076 115.764 53.6551 115.229 52.6517C114.71 51.6315 114.451 50.3438 114.451 48.7885C114.451 47.2165 114.702 45.9287 115.204 44.9253C115.722 43.9219 116.425 43.1777 117.311 42.6927C118.197 42.191 119.209 41.9401 120.346 41.9401C121.667 41.9401 122.83 42.2244 123.833 42.793C124.853 43.3616 125.656 44.156 126.241 45.1762C126.843 46.1963 127.144 47.4004 127.144 48.7885C127.144 50.1765 126.843 51.389 126.241 52.4259C125.656 53.446 124.853 54.2404 123.833 54.809C122.83 55.3776 121.667 55.6619 120.346 55.6619ZM112.921 60.3529V42.0906H115.906V45.2514L115.806 48.8136L116.057 52.3757V60.3529H112.921ZM119.995 52.9778C120.748 52.9778 121.417 52.8105 122.002 52.4761C122.604 52.1416 123.081 51.6566 123.432 51.0211C123.783 50.3856 123.959 49.6414 123.959 48.7885C123.959 47.9188 123.783 47.1746 123.432 46.5559C123.081 45.9204 122.604 45.4354 122.002 45.1009C121.417 44.7664 120.748 44.5992 119.995 44.5992C119.243 44.5992 118.565 44.7664 117.963 45.1009C117.361 45.4354 116.884 45.9204 116.533 46.5559C116.182 47.1746 116.007 47.9188 116.007 48.7885C116.007 49.6414 116.182 50.3856 116.533 51.0211C116.884 51.6566 117.361 52.1416 117.963 52.4761C118.565 52.8105 119.243 52.9778 119.995 52.9778ZM130.118 55.4863V36.8728H133.254V55.4863H130.118ZM143.666 55.6619C142.178 55.6619 140.873 55.3693 139.753 54.7839C138.649 54.1819 137.788 53.3624 137.169 52.3255C136.567 51.2887 136.266 50.1097 136.266 48.7885C136.266 47.4506 136.559 46.2716 137.144 45.2514C137.746 44.2145 138.565 43.4034 139.602 42.8181C140.656 42.2328 141.852 41.9401 143.189 41.9401C144.494 41.9401 145.656 42.2244 146.676 42.793C147.696 43.3616 148.499 44.1644 149.085 45.2012C149.67 46.2381 149.963 47.4589 149.963 48.8637C149.963 48.9975 149.954 49.148 149.937 49.3153C149.937 49.4825 149.929 49.6414 149.912 49.7919H138.749V47.7098H148.257L147.028 48.362C147.044 47.5927 146.885 46.9154 146.551 46.3301C146.216 45.7448 145.757 45.2849 145.171 44.9504C144.603 44.6159 143.942 44.4487 143.189 44.4487C142.42 44.4487 141.743 44.6159 141.158 44.9504C140.589 45.2849 140.137 45.7531 139.803 46.3552C139.485 46.9405 139.326 47.6345 139.326 48.4373V48.939C139.326 49.7417 139.51 50.4525 139.878 51.0713C140.246 51.69 140.765 52.1667 141.433 52.5011C142.102 52.8356 142.872 53.0029 143.741 53.0029C144.494 53.0029 145.171 52.8858 145.773 52.6517C146.375 52.4175 146.91 52.0496 147.379 51.5479L149.059 53.4795C148.457 54.1819 147.696 54.7254 146.777 55.11C145.874 55.478 144.837 55.6619 143.666 55.6619ZM165.652 55.7372C164.281 55.7372 162.968 55.5449 161.714 55.1602C160.459 54.7588 159.464 54.2488 158.728 53.63L159.857 51.0964C160.56 51.6482 161.429 52.1081 162.466 52.4761C163.503 52.844 164.565 53.0279 165.652 53.0279C166.572 53.0279 167.316 52.9276 167.885 52.7269C168.453 52.5262 168.871 52.2587 169.139 51.9242C169.406 51.573 169.54 51.18 169.54 50.7452C169.54 50.21 169.348 49.7835 168.963 49.4658C168.579 49.1313 168.077 48.8721 167.458 48.6881C166.856 48.4875 166.179 48.3035 165.426 48.1363C164.69 47.969 163.946 47.7767 163.194 47.5593C162.458 47.3252 161.78 47.0325 161.162 46.6813C160.56 46.3134 160.066 45.8284 159.682 45.2263C159.297 44.6243 159.105 43.855 159.105 42.9185C159.105 41.9652 159.356 41.0956 159.857 40.3096C160.376 39.5068 161.153 38.8713 162.19 38.4031C163.244 37.9181 164.573 37.6756 166.179 37.6756C167.232 37.6756 168.278 37.8094 169.315 38.0769C170.351 38.3445 171.254 38.7292 172.024 39.2309L170.995 41.7645C170.209 41.2963 169.398 40.9534 168.562 40.736C167.726 40.5019 166.923 40.3848 166.154 40.3848C165.251 40.3848 164.515 40.4935 163.946 40.7109C163.394 40.9283 162.985 41.2126 162.717 41.5638C162.466 41.915 162.341 42.3164 162.341 42.7679C162.341 43.3031 162.525 43.7379 162.893 44.0724C163.277 44.3901 163.771 44.641 164.373 44.825C164.991 45.0089 165.677 45.1929 166.43 45.3768C167.182 45.5441 167.926 45.7364 168.662 45.9538C169.415 46.1712 170.092 46.4555 170.694 46.8067C171.313 47.1579 171.806 47.6345 172.174 48.2366C172.559 48.8387 172.751 49.5996 172.751 50.5194C172.751 51.4559 172.492 52.3255 171.974 53.1283C171.472 53.9143 170.694 54.5498 169.641 55.0348C168.587 55.5031 167.257 55.7372 165.652 55.7372ZM180.726 55.6619C179.254 55.6619 178.117 55.2856 177.314 54.5331C176.512 53.7638 176.11 52.6349 176.11 51.1465V39.1305H179.246V51.0713C179.246 51.7068 179.405 52.2001 179.723 52.5513C180.057 52.9025 180.517 53.0781 181.102 53.0781C181.805 53.0781 182.39 52.8942 182.858 52.5262L183.736 54.7588C183.368 55.0599 182.917 55.2856 182.382 55.4362C181.847 55.5867 181.295 55.6619 180.726 55.6619ZM173.903 44.6995V42.191H182.833V44.6995H173.903ZM191.895 55.6619C190.524 55.6619 189.303 55.3693 188.233 54.7839C187.163 54.1819 186.318 53.3624 185.699 52.3255C185.081 51.2887 184.771 50.1097 184.771 48.7885C184.771 47.4506 185.081 46.2716 185.699 45.2514C186.318 44.2145 187.163 43.4034 188.233 42.8181C189.303 42.2328 190.524 41.9401 191.895 41.9401C193.283 41.9401 194.513 42.2328 195.583 42.8181C196.67 43.4034 197.515 44.2062 198.117 45.2263C198.735 46.2465 199.045 47.4339 199.045 48.7885C199.045 50.1097 198.735 51.2887 198.117 52.3255C197.515 53.3624 196.67 54.1819 195.583 54.7839C194.513 55.3693 193.283 55.6619 191.895 55.6619ZM191.895 52.9778C192.665 52.9778 193.35 52.8105 193.952 52.4761C194.555 52.1416 195.023 51.6566 195.357 51.0211C195.708 50.3856 195.884 49.6414 195.884 48.7885C195.884 47.9188 195.708 47.1746 195.357 46.5559C195.023 45.9204 194.555 45.4354 193.952 45.1009C193.35 44.7664 192.673 44.5992 191.921 44.5992C191.151 44.5992 190.466 44.7664 189.864 45.1009C189.278 45.4354 188.81 45.9204 188.459 46.5559C188.108 47.1746 187.932 47.9188 187.932 48.7885C187.932 49.6414 188.108 50.3856 188.459 51.0211C188.81 51.6566 189.278 52.1416 189.864 52.4761C190.466 52.8105 191.143 52.9778 191.895 52.9778ZM202.043 55.4863V42.0906H205.029V45.7782L204.677 44.6995C205.079 43.7965 205.706 43.1108 206.559 42.6425C207.428 42.1743 208.507 41.9401 209.795 41.9401V44.9253C209.661 44.8919 209.536 44.8751 209.418 44.8751C209.301 44.8584 209.184 44.85 209.067 44.85C207.88 44.85 206.935 45.2012 206.233 45.9036C205.53 46.5893 205.179 47.6178 205.179 48.9892V55.4863H202.043ZM218.629 55.6619C217.14 55.6619 215.836 55.3693 214.715 54.7839C213.612 54.1819 212.75 53.3624 212.132 52.3255C211.53 51.2887 211.229 50.1097 211.229 48.7885C211.229 47.4506 211.521 46.2716 212.107 45.2514C212.709 44.2145 213.528 43.4034 214.565 42.8181C215.619 42.2328 216.814 41.9401 218.152 41.9401C219.457 41.9401 220.619 42.2244 221.639 42.793C222.659 43.3616 223.462 44.1644 224.047 45.2012C224.633 46.2381 224.925 47.4589 224.925 48.8637C224.925 48.9975 224.917 49.148 224.9 49.3153C224.9 49.4825 224.892 49.6414 224.875 49.7919H213.712V47.7098H223.219L221.99 48.362C222.007 47.5927 221.848 46.9154 221.514 46.3301C221.179 45.7448 220.719 45.2849 220.134 44.9504C219.565 44.6159 218.905 44.4487 218.152 44.4487C217.383 44.4487 216.706 44.6159 216.12 44.9504C215.552 45.2849 215.1 45.7531 214.766 46.3552C214.448 46.9405 214.289 47.6345 214.289 48.4373V48.939C214.289 49.7417 214.473 50.4525 214.841 51.0713C215.209 51.69 215.727 52.1667 216.396 52.5011C217.065 52.8356 217.834 53.0029 218.704 53.0029C219.457 53.0029 220.134 52.8858 220.736 52.6517C221.338 52.4175 221.873 52.0496 222.341 51.5479L224.022 53.4795C223.42 54.1819 222.659 54.7254 221.739 55.11C220.836 55.478 219.799 55.6619 218.629 55.6619Z" fill="#434343"/>
<rect x="1.58177" y="1.41233" width="250.955" height="90.1479" rx="6.59821" stroke="#ADCEFF" stroke-width="1.46627"/>
</svg>
