<svg width="88" height="89" viewBox="0 0 88 89" fill="none" xmlns="http://www.w3.org/2000/svg">
<circle cx="44.125" cy="44.2441" r="43.873" fill="#048C9C" fill-opacity="0.07"/>
<path d="M54.0362 36.2797C53.9373 36.2632 53.822 36.2632 53.7231 36.2797C51.4487 36.1974 49.6357 34.3385 49.6357 32.0355C49.6357 29.6831 51.5311 27.7913 53.8879 27.7913C56.2447 27.7913 58.14 29.6995 58.14 32.0355C58.1236 34.3385 56.3106 36.1974 54.0362 36.2797Z" stroke="#043C93" stroke-width="2.05655" stroke-linecap="round" stroke-linejoin="round"/>
<path d="M52.3385 48.2557C54.5964 48.634 57.0851 48.2392 58.8321 47.0713C61.156 45.5249 61.156 42.9915 58.8321 41.4452C57.0686 40.2772 54.547 39.8824 52.2891 40.2772" stroke="#043C93" stroke-width="2.05655" stroke-linecap="round" stroke-linejoin="round"/>
<path d="M34.2093 36.2799C34.3082 36.2635 34.4235 36.2635 34.5224 36.2799C36.7968 36.1977 38.6098 34.3388 38.6098 32.0357C38.6098 29.6833 36.7144 27.7915 34.3576 27.7915C32.0008 27.7915 30.1055 29.6998 30.1055 32.0357C30.1219 34.3388 31.9349 36.1977 34.2093 36.2799Z" stroke="#043C93" stroke-width="2.05655" stroke-linecap="round" stroke-linejoin="round"/>
<path d="M35.9064 48.2559C33.6485 48.6343 31.1598 48.2395 29.4128 47.0715C27.089 45.5252 27.089 42.9918 29.4128 41.4455C31.1763 40.2775 33.6979 39.8827 35.9558 40.2775" stroke="#043C93" stroke-width="2.05655" stroke-linecap="round" stroke-linejoin="round"/>
<path d="M44.1476 48.5683C44.0487 48.5518 43.9333 48.5518 43.8344 48.5683C41.56 48.486 39.7471 46.6271 39.7471 44.324C39.7471 41.9716 41.6424 40.0798 43.9992 40.0798C46.356 40.0798 48.2514 41.9881 48.2514 44.324C48.2349 46.6271 46.422 48.5025 44.1476 48.5683Z" stroke="#043C93" stroke-width="2.05655" stroke-linecap="round" stroke-linejoin="round"/>
<path d="M39.3523 53.7502C37.0284 55.2965 37.0284 57.8299 39.3523 59.3762C41.9893 61.1364 46.3073 61.1364 48.9443 59.3762C51.2682 57.8299 51.2682 55.2965 48.9443 53.7502C46.3238 52.0064 41.9893 52.0064 39.3523 53.7502Z" stroke="#043C93" stroke-width="2.05655" stroke-linecap="round" stroke-linejoin="round"/>
</svg>
