<svg width="88" height="89" viewBox="0 0 88 89" fill="none" xmlns="http://www.w3.org/2000/svg">
<circle cx="43.999" cy="44.7914" r="43.873" fill="#048C9C" fill-opacity="0.07"/>
<path d="M47.0427 31.0808H54.6657C57.1061 31.0808 57.7093 31.6841 57.7093 34.0971V39.732C57.7093 42.145 57.1061 42.7483 54.6657 42.7483H47.0427C44.6023 42.7483 43.999 42.145 43.999 39.732V34.0971C43.999 31.6841 44.6023 31.0808 47.0427 31.0808Z" fill="#182E6B" fill-opacity="0.12" stroke="#043C93" stroke-width="2.31362" stroke-linecap="round" stroke-linejoin="round"/>
<path d="M30.2891 51.7285H43.9994" stroke="#043C93" stroke-width="2.31362" stroke-miterlimit="10" stroke-linecap="round" stroke-linejoin="round"/>
<path d="M33.3328 46.8477H40.9557C43.3961 46.8477 43.9994 47.4509 43.9994 49.8639V55.4989C43.9994 57.9119 43.3961 58.5151 40.9557 58.5151H33.3328C30.8923 58.5151 30.2891 57.9119 30.2891 55.4989V49.8639C30.2891 47.4509 30.8923 46.8477 33.3328 46.8477Z" fill="#182E6B" fill-opacity="0.12" stroke="#043C93" stroke-width="2.31362" stroke-linecap="round" stroke-linejoin="round"/>
<path d="M57.7105 48.9045C57.7105 54.2104 53.4192 58.5018 48.1133 58.5018L49.5528 56.1025" fill="#182E6B" fill-opacity="0.12"/>
<path d="M57.7105 48.9045C57.7105 54.2104 53.4192 58.5018 48.1133 58.5018L49.5528 56.1025" stroke="#043C93" stroke-width="2.31362" stroke-linecap="round" stroke-linejoin="round"/>
<path d="M30.29 40.6783C30.29 35.3724 34.5814 31.0811 39.8873 31.0811L38.4477 33.4804" fill="#182E6B" fill-opacity="0.12"/>
<path d="M30.29 40.6783C30.29 35.3724 34.5814 31.0811 39.8873 31.0811L38.4477 33.4804" stroke="#043C93" stroke-width="2.31362" stroke-linecap="round" stroke-linejoin="round"/>
<path d="M43.999 35.9619H57.7093" stroke="#043C93" stroke-width="2.31362" stroke-miterlimit="10" stroke-linecap="round" stroke-linejoin="round"/>
</svg>
