<svg width="20" height="19" viewBox="0 0 20 19" fill="none" xmlns="http://www.w3.org/2000/svg">
<path d="M14.4902 0.03125H5.79701C2.96773 0.03125 0.666016 2.33297 0.666016 5.16225V13.8556C0.666016 16.6847 2.96773 18.9864 5.79701 18.9864H14.4903C17.3195 18.9864 19.6212 16.6847 19.6212 13.8556V5.16225C19.6212 2.33297 17.3195 0.03125 14.4902 0.03125ZM10.1436 14.6918C7.28569 14.6918 4.96069 12.3668 4.96069 9.50884C4.96069 6.65093 7.28569 4.32593 10.1436 4.32593C13.0015 4.32593 15.3265 6.65093 15.3265 9.50884C15.3265 12.3668 13.0015 14.6918 10.1436 14.6918ZM15.4505 5.54823C14.6059 5.54823 13.919 4.8613 13.919 4.01674C13.919 3.17218 14.6059 2.4851 15.4505 2.4851C16.295 2.4851 16.9821 3.17218 16.9821 4.01674C16.9821 4.8613 16.295 5.54823 15.4505 5.54823Z" fill="white"/>
<path d="M10.143 5.43701C7.89794 5.43701 6.07129 7.26352 6.07129 9.5087C6.07129 11.7537 7.89794 13.5804 10.143 13.5804C12.3881 13.5804 14.2147 11.7537 14.2147 9.5087C14.2147 7.26352 12.3881 5.43701 10.143 5.43701Z" fill="white"/>
<path d="M15.4505 3.59668C15.2189 3.59668 15.0303 3.78525 15.0303 4.01694C15.0303 4.24861 15.2189 4.43719 15.4505 4.43719C15.6824 4.43719 15.8709 4.24875 15.8709 4.01694C15.8709 3.78511 15.6824 3.59668 15.4505 3.59668Z" fill="white"/>
</svg>
