<svg width="241" height="44" viewBox="0 0 241 44" fill="none" xmlns="http://www.w3.org/2000/svg">
<path d="M7.8 30.6111L10.84 9.45108C10.84 9.25108 10.96 9.17108 11.08 9.17108C11.16 9.17108 11.24 9.21108 11.28 9.41108L16.28 27.3711C16.76 29.3311 18.48 30.2911 20.32 30.2911C22.24 30.2911 23.84 29.2911 24.4 27.2511L29.4 9.41108C29.44 9.25108 29.52 9.17108 29.64 9.17108C29.8 9.17108 29.84 9.29108 29.84 9.49108L32.44 30.6111H38.36L35.04 7.57108C34.64 4.69108 32.72 3.17108 30.04 3.17108C27.6 3.17108 25.52 4.33108 24.84 6.93108L20.4 23.6111C20.4 23.7311 20.36 23.7311 20.32 23.7311C20.32 23.7311 20.28 23.7311 20.28 23.6111L15.76 6.81108C15.12 4.21108 13.08 3.17108 10.68 3.17108C7.96 3.17108 6 4.65108 5.52 7.45108L1.88 30.6111H7.8ZM52.1944 40.2911C58.7144 40.2911 63.1544 35.7711 63.1544 28.8511V10.8111H57.3944V20.5311C57.3944 23.3711 55.4744 25.4911 52.9144 25.4911C50.1144 25.4911 48.5544 23.5311 48.5544 20.6511V10.8111H42.9544V20.8511C42.9544 26.7311 45.7544 30.8511 52.1944 30.8511C54.6344 30.8511 56.3944 29.9711 57.4744 28.3711V28.9311C57.4744 32.6111 55.5144 35.0911 52.1144 35.0911C49.5544 35.0911 47.7944 33.7711 46.9144 32.0511L42.2344 34.6111C44.0344 38.2911 47.4744 40.2911 52.1944 40.2911Z" fill="#043C93"/>
<path d="M76.2594 30.6111V31.9821H77.6304V30.6111H76.2594ZM76.2594 16.6111V15.2401H74.8883V16.6111H76.2594ZM82.0194 16.6111V17.9821H83.3904V16.6111H82.0194ZM82.0194 10.6111H83.3904V9.24005H82.0194V10.6111ZM76.2594 10.6111H74.8883V11.9821H76.2594V10.6111ZM82.4594 8.13108L81.8064 9.33662L83.8304 10.433V8.13108H82.4594ZM82.4594 1.61108H83.8304V0.716458L83.0115 0.356157L82.4594 1.61108ZM69.0594 10.6111V11.9821H70.4304V10.6111H69.0594ZM65.6594 10.6111V9.24005H64.2883V10.6111H65.6594ZM65.6594 16.6111H64.2883V17.9821H65.6594V16.6111ZM69.0594 16.6111H70.4304V15.2401H69.0594V16.6111ZM69.0594 30.6111H67.6883V31.9821H69.0594V30.6111ZM77.6304 30.6111V16.6111H74.8883V30.6111H77.6304ZM76.2594 17.9821H82.0194V15.2401H76.2594V17.9821ZM83.3904 16.6111V10.6111H80.6483V16.6111H83.3904ZM82.0194 9.24005H76.2594V11.9821H82.0194V9.24005ZM77.6304 10.6111V10.3311H74.8883V10.6111H77.6304ZM77.6304 10.3311C77.6304 9.65028 77.8295 9.28897 78.0297 9.0945C78.2359 8.89417 78.6176 8.70211 79.2994 8.70211V5.96005C78.1012 5.96005 76.9628 6.308 76.1191 7.12767C75.2692 7.9532 74.8883 9.09189 74.8883 10.3311H77.6304ZM79.2994 8.70211C80.0816 8.70211 81.0557 8.93003 81.8064 9.33662L83.1124 6.92554C81.943 6.29214 80.5171 5.96005 79.2994 5.96005V8.70211ZM83.8304 8.13108V1.61108H81.0883V8.13108H83.8304ZM83.0115 0.356157C81.7812 -0.18518 80.0965 -0.439949 78.6194 -0.439949V2.30211C79.8623 2.30211 81.1375 2.52734 81.9072 2.86601L83.0115 0.356157ZM78.6194 -0.439949C75.0468 -0.439949 72.2619 0.732562 70.3819 2.79164C68.521 4.82974 67.6883 7.58082 67.6883 10.4911H70.4304C70.4304 8.08135 71.1177 6.05242 72.4069 4.64053C73.6768 3.2496 75.6719 2.30211 78.6194 2.30211V-0.439949ZM67.6883 10.4911V10.6111H70.4304V10.4911H67.6883ZM69.0594 9.24005H65.6594V11.9821H69.0594V9.24005ZM64.2883 10.6111V16.6111H67.0304V10.6111H64.2883ZM65.6594 17.9821H69.0594V15.2401H65.6594V17.9821ZM67.6883 16.6111V30.6111H70.4304V16.6111H67.6883ZM69.0594 31.9821H76.2594V29.2401H69.0594V31.9821ZM98.8766 29.1311H100.248V25.7477L97.8923 28.1766L98.8766 29.1311ZM98.8766 30.6111H97.5055V31.9821H98.8766V30.6111ZM105.677 30.6111V31.9821H107.048V30.6111H105.677ZM93.4766 32.5821C96.1171 32.5821 98.2895 31.706 99.8608 30.0855L97.8923 28.1766C96.9036 29.1962 95.476 29.8401 93.4766 29.8401V32.5821ZM97.5055 29.1311V30.6111H100.248V29.1311H97.5055ZM98.8766 31.9821H105.677V29.2401H98.8766V31.9821ZM107.048 30.6111V20.5711H104.306V30.6111H107.048ZM107.048 20.5711C107.048 13.6504 101.79 8.60005 94.6766 8.60005V11.3421C100.364 11.3421 104.306 15.2517 104.306 20.5711H107.048ZM94.6766 8.60005C87.7094 8.60005 82.3055 13.9842 82.3055 20.5711H85.0476C85.0476 15.558 89.1637 11.3421 94.6766 11.3421V8.60005ZM82.3055 20.5711C82.3055 27.0155 86.7351 32.5821 93.4766 32.5821V29.8401C88.538 29.8401 85.0476 25.8066 85.0476 20.5711H82.3055ZM94.6766 23.0801C93.2192 23.0801 92.2476 22.001 92.2476 20.6111H89.5055C89.5055 23.3812 91.5739 25.8221 94.6766 25.8221V23.0801ZM92.2476 20.6111C92.2476 19.1717 93.2281 18.1021 94.6766 18.1021V15.3601C91.565 15.3601 89.5055 17.8104 89.5055 20.6111H92.2476ZM94.6766 18.1021C96.125 18.1021 97.1055 19.1717 97.1055 20.6111H99.8476C99.8476 17.8104 97.7881 15.3601 94.6766 15.3601V18.1021ZM97.1055 20.6111C97.1055 22.001 96.1339 23.0801 94.6766 23.0801V25.8221C97.7792 25.8221 99.8476 23.3812 99.8476 20.6111H97.1055ZM131.392 10.6111H132.763V9.24005H131.392V10.6111ZM124.072 10.6111V9.24005H122.701V10.6111H124.072ZM117.272 10.6111H118.643V9.24005H117.272V10.6111ZM110.192 10.6111V9.24005H108.821V10.6111H110.192ZM124.192 29.2511L125.56 29.3448L125.817 25.5868L123.204 28.3001L124.192 29.2511ZM115.232 31.1311L116.472 30.5473L115.857 29.2393L114.583 29.9231L115.232 31.1311ZM109.272 34.3311L108.623 33.1231L107.479 33.7377L108.031 34.9136L109.272 34.3311ZM119.792 41.8221C123.43 41.8221 126.689 40.5683 129.044 38.2476C131.404 35.9225 132.763 32.6172 132.763 28.6911H130.021C130.021 31.965 128.9 34.5396 127.12 36.2946C125.334 38.0539 122.793 39.0801 119.792 39.0801V41.8221ZM132.763 28.6911V10.6111H130.021V28.6911H132.763ZM131.392 9.24005H124.072V11.9821H131.392V9.24005ZM122.701 10.6111V20.3711H125.443V10.6111H122.701ZM122.701 20.3711C122.701 21.8445 121.644 22.6801 120.672 22.6801V25.4221C123.219 25.4221 125.443 23.2977 125.443 20.3711H122.701ZM120.672 22.6801C119.948 22.6801 119.486 22.4382 119.192 22.115C118.885 21.776 118.643 21.211 118.643 20.3711H115.901C115.901 21.7312 116.299 23.0061 117.161 23.9572C118.038 24.924 119.275 25.4221 120.672 25.4221V22.6801ZM118.643 20.3711V10.6111H115.901V20.3711H118.643ZM117.272 9.24005H110.192V11.9821H117.272V9.24005ZM108.821 10.6111V20.5311H111.563V10.6111H108.821ZM108.821 20.5311C108.821 23.7155 109.55 26.6489 111.369 28.805C113.222 31.002 116.026 32.1821 119.712 32.1821V29.4401C116.637 29.4401 114.682 28.4801 113.465 27.0372C112.213 25.5532 111.563 23.3466 111.563 20.5311H108.821ZM119.712 32.1821C121.889 32.1821 123.79 31.6451 125.179 30.2021L123.204 28.3001C122.514 29.0171 121.455 29.4401 119.712 29.4401V32.1821ZM122.824 29.1574C122.741 30.3728 122.353 31.1964 121.853 31.7059C121.365 32.2034 120.655 32.5201 119.672 32.5201V35.2621C121.288 35.2621 122.739 34.7188 123.811 33.6263C124.871 32.5457 125.443 31.0494 125.56 29.3448L122.824 29.1574ZM119.672 32.5201C117.847 32.5201 116.944 31.5498 116.472 30.5473L113.991 31.7149C114.8 33.4324 116.537 35.2621 119.672 35.2621V32.5201ZM114.583 29.9231L108.623 33.1231L109.92 35.539L115.88 32.339L114.583 29.9231ZM108.031 34.9136C109.055 37.0947 110.561 38.845 112.571 40.0397C114.575 41.2302 116.998 41.8221 119.792 41.8221V39.0801C117.385 39.0801 115.469 38.572 113.972 37.6825C112.483 36.7972 111.329 35.4874 110.513 33.7485L108.031 34.9136ZM147.56 17.4911L146.273 17.9631L146.83 19.484L148.238 18.6826L147.56 17.4911ZM152.76 14.5311L153.438 15.7226L154.583 15.0707L153.977 13.9006L152.76 14.5311ZM140.4 23.7311L141.595 23.0589L140.923 21.8648L139.729 22.5356L140.4 23.7311ZM135.2 26.6511L134.529 25.4556L133.329 26.1291L134.007 27.3262L135.2 26.6511ZM144.36 32.6221C147.039 32.6221 149.587 31.8777 151.502 30.4709C153.439 29.0476 154.731 26.9307 154.731 24.3311H151.989C151.989 25.9315 151.221 27.2746 149.878 28.2612C148.513 29.2645 146.561 29.8801 144.36 29.8801V32.6221ZM154.731 24.3311C154.731 22.0808 153.919 20.4337 152.622 19.2776C151.386 18.1758 149.81 17.611 148.422 17.2534C147.717 17.0718 147.02 16.9344 146.402 16.8147C145.764 16.6914 145.235 16.5914 144.789 16.4776C144.322 16.3585 144.096 16.259 144.007 16.2005C143.969 16.176 144.171 16.3189 144.171 16.6111H141.429C141.429 17.5233 141.961 18.1374 142.501 18.4923C142.989 18.8132 143.588 19.0011 144.111 19.1346C144.655 19.2733 145.281 19.3908 145.881 19.5069C146.5 19.6266 147.123 19.7503 147.738 19.9088C148.99 20.2312 150.054 20.6614 150.798 21.3245C151.481 21.9335 151.989 22.8214 151.989 24.3311H154.731ZM144.171 16.6111C144.171 16.6803 144.153 16.7682 144.106 16.8537C144.061 16.9371 144.008 16.9814 143.985 16.9971C143.965 17.0108 143.979 16.9959 144.05 16.9778C144.12 16.9598 144.234 16.9421 144.4 16.9421V14.2001C143.709 14.2001 143.007 14.3432 142.435 14.7351C141.819 15.1571 141.429 15.8269 141.429 16.6111H144.171ZM144.4 16.9421C145.376 16.9421 146.089 17.4627 146.273 17.9631L148.847 17.0191C148.151 15.1194 146.144 14.2001 144.4 14.2001V16.9421ZM148.238 18.6826L153.438 15.7226L152.082 13.3396L146.882 16.2996L148.238 18.6826ZM153.977 13.9006C152.589 11.2202 149.528 8.60005 144.24 8.60005V11.3421C148.472 11.3421 150.611 13.362 151.543 15.1616L153.977 13.9006ZM144.24 8.60005C141.27 8.60005 138.779 9.43126 137.004 10.9067C135.215 12.393 134.229 14.4771 134.229 16.7711H136.971C136.971 15.3051 137.585 13.9892 138.756 13.0155C139.941 12.0309 141.77 11.3421 144.24 11.3421V8.60005ZM134.229 16.7711C134.229 19.0665 135.03 20.7467 136.329 21.924C137.571 23.0486 139.155 23.6106 140.55 23.9568C141.258 24.1325 141.957 24.2614 142.578 24.372C143.219 24.4862 143.748 24.5764 144.197 24.6816C144.667 24.7917 144.892 24.8851 144.978 24.939C145.01 24.9586 144.789 24.8052 144.789 24.4911H147.531C147.531 23.567 146.98 22.9573 146.434 22.6152C145.943 22.3074 145.343 22.1336 144.823 22.0118C144.282 21.8851 143.656 21.7788 143.059 21.6725C142.443 21.5627 141.822 21.4472 141.21 21.2954C139.965 20.9866 138.909 20.5611 138.171 19.8919C137.49 19.2755 136.971 18.3557 136.971 16.7711H134.229ZM144.789 24.4911C144.789 24.3983 144.817 24.2979 144.869 24.2147C144.917 24.1374 144.959 24.1179 144.937 24.1311C144.873 24.1689 144.607 24.2801 144 24.2801V27.0221C144.873 27.0221 145.687 26.8733 146.333 26.4911C147.028 26.08 147.531 25.3791 147.531 24.4911H144.789ZM144 24.2801C143.26 24.2801 142.782 24.1485 142.453 23.9682C142.134 23.7939 141.854 23.52 141.595 23.0589L139.205 24.4032C139.666 25.2222 140.286 25.9083 141.137 26.3739C141.978 26.8337 142.94 27.0221 144 27.0221V24.2801ZM139.729 22.5356L134.529 25.4556L135.871 27.8465L141.071 24.9265L139.729 22.5356ZM134.007 27.3262C134.989 29.0619 136.339 30.411 138.107 31.3125C139.86 32.2061 141.947 32.6221 144.36 32.6221V29.8801C142.253 29.8801 140.62 29.516 139.353 28.8697C138.101 28.2311 137.131 27.2803 136.393 25.9759L134.007 27.3262ZM170.947 29.1311H172.318V25.7477L169.963 28.1766L170.947 29.1311ZM170.947 30.6111H169.576V31.9821H170.947V30.6111ZM177.747 30.6111V31.9821H179.118V30.6111H177.747ZM165.547 32.5821C168.187 32.5821 170.36 31.706 171.931 30.0855L169.963 28.1766C168.974 29.1962 167.546 29.8401 165.547 29.8401V32.5821ZM169.576 29.1311V30.6111H172.318V29.1311H169.576ZM170.947 31.9821H177.747V29.2401H170.947V31.9821ZM179.118 30.6111V20.5711H176.376V30.6111H179.118ZM179.118 20.5711C179.118 13.6504 173.86 8.60005 166.747 8.60005V11.3421C172.434 11.3421 176.376 15.2517 176.376 20.5711H179.118ZM166.747 8.60005C159.78 8.60005 154.376 13.9842 154.376 20.5711H157.118C157.118 15.558 161.234 11.3421 166.747 11.3421V8.60005ZM154.376 20.5711C154.376 27.0155 158.805 32.5821 165.547 32.5821V29.8401C160.608 29.8401 157.118 25.8066 157.118 20.5711H154.376ZM166.747 23.0801C165.289 23.0801 164.318 22.001 164.318 20.6111H161.576C161.576 23.3812 163.644 25.8221 166.747 25.8221V23.0801ZM164.318 20.6111C164.318 19.1717 165.298 18.1021 166.747 18.1021V15.3601C163.635 15.3601 161.576 17.8104 161.576 20.6111H164.318ZM166.747 18.1021C168.195 18.1021 169.176 19.1717 169.176 20.6111H171.918C171.918 17.8104 169.858 15.3601 166.747 15.3601V18.1021ZM169.176 20.6111C169.176 22.001 168.204 23.0801 166.747 23.0801V25.8221C169.849 25.8221 171.918 23.3812 171.918 20.6111H169.176ZM182.542 1.41108V0.0400515H181.171V1.41108H182.542ZM182.542 30.6111H181.171V31.9821H182.542V30.6111ZM189.742 30.6111V31.9821H191.113V30.6111H189.742ZM189.742 1.41108H191.113V0.0400515H189.742V1.41108ZM181.171 1.41108V30.6111H183.913V1.41108H181.171ZM182.542 31.9821H189.742V29.2401H182.542V31.9821ZM191.113 30.6111V1.41108H188.371V30.6111H191.113ZM189.742 0.0400515H182.542V2.78211H189.742V0.0400515Z" fill="#043C93"/>
</svg>
