<svg width="22" height="19" viewBox="0 0 22 19" fill="none" xmlns="http://www.w3.org/2000/svg">
<path d="M21.4873 3.00633C20.6827 3.3571 19.8318 3.59018 18.9608 3.69841C19.8774 3.15308 20.5624 2.29075 20.8862 1.27451C20.0265 1.78458 19.0859 2.14383 18.105 2.3367C16.875 1.02289 14.9671 0.593917 13.2931 1.25474C11.6191 1.91558 10.5187 3.53207 10.5178 5.3318C10.5161 5.66814 10.552 6.00361 10.6247 6.33197C7.09591 6.15867 3.80806 4.49004 1.58488 1.7441C0.412466 3.74689 1.00325 6.31635 2.93268 7.60595C2.23812 7.58861 1.55792 7.40444 0.949494 7.06897L0.949493 7.11711C0.949493 9.20562 2.41678 11.0076 4.46268 11.431C4.08771 11.5299 3.70126 11.5785 3.31348 11.5755C3.03491 11.5805 2.75661 11.5554 2.48341 11.5007C3.06428 13.2843 4.70612 14.5083 6.58136 14.5557C5.02824 15.7683 3.11355 16.4255 1.14311 16.4222C0.792401 16.4247 0.441898 16.4047 0.09375 16.3623C2.09926 17.6547 4.43622 18.3383 6.82204 18.3306C10.1392 18.3535 13.3272 17.0462 15.6732 14.7008C18.0191 12.3555 19.3273 9.16778 19.3052 5.85061C19.3052 5.65699 19.2988 5.4698 19.2891 5.28368C20.1542 4.66451 20.8991 3.89276 21.4873 3.00633H21.4873Z" fill="white"/>
</svg>
