<svg width="22" height="16" viewBox="0 0 22 16" fill="none" xmlns="http://www.w3.org/2000/svg">
<path d="M21.3879 2.51561L21.4151 2.6937C21.1516 1.75874 20.4402 1.03731 19.5361 0.774722L19.517 0.770179C17.817 0.308606 10.9761 0.308606 10.9761 0.308606C10.9761 0.308606 4.15248 0.29952 2.43521 0.770179C1.51388 1.03731 0.801533 1.75874 0.54258 2.67462L0.538037 2.6937C-0.0970797 6.01103 -0.101623 9.99709 0.566204 13.5488L0.538037 13.3689C0.801533 14.3039 1.51297 15.0253 2.41704 15.2879L2.43612 15.2925C4.13431 15.7549 10.977 15.7549 10.977 15.7549C10.977 15.7549 17.7998 15.7549 19.5179 15.2925C20.4402 15.0253 21.1525 14.3039 21.4115 13.388L21.416 13.3689C21.705 11.8261 21.8703 10.0507 21.8703 8.23711C21.8703 8.17078 21.8703 8.10355 21.8694 8.03631C21.8703 7.97453 21.8703 7.90093 21.8703 7.82733C21.8703 6.01284 21.705 4.23742 21.3879 2.51561L21.3879 2.51561ZM8.79364 11.3491V4.72262L14.487 8.04086L8.79364 11.3491Z" fill="white"/>
</svg>
